<svg width="396.076" height="155.686" viewBox="0 0 104.795 41.192" xmlns="http://www.w3.org/2000/svg"><defs><path id="a" d="M21.414 70.127h686.46v365.659H21.414z"/></defs><path style="fill:#ccc;fill-opacity:1;stroke-width:.79375;stroke-linejoin:bevel" d="M-20.969-28.198h143.495v93.565H-20.969z"/><g aria-label="meshpro" transform="translate(7.334 -12.844) scale(.26458)" style="font-style:italic;font-weight:700;font-size:85.3333px;line-height:1.25;font-family:'Cascadia Code';-inkscape-font-specification:'Cascadia Code Bold Italic';letter-spacing:0;white-space:pre;shape-inside:url(#a)"><path d="m24.23 134.837 37.035-30.72-3.84 19.2 23.296-19.2-8.96 44.8H60.07l3.925-19.456-23.552 19.627 3.755-18.944-22.784 18.773zm57.6-18.347 14.763-12.288-2.304 11.606-6.656 33.109H75.345Zm4.608 21.248h19.456l-2.219 11.179H87.633Zm2.645-16.47h20.139l-2.219 11.009H90.961Zm2.134-5.46 5.376-11.606h27.477l-13.91 11.606zm38.485 5.461q6.485 0 9.728 3.84 3.328 3.84 2.133 9.728-1.109 5.632-5.973 9.899-4.864 4.18-10.581 4.18H107.43l2.219-11.178 16.384.085q1.109 0 2.048-.853.938-.939 1.194-2.133.512-2.39-2.73-2.39-6.571 0-10.07-4.352-3.413-4.352-2.218-10.496 1.109-5.376 6.229-9.386 5.205-4.01 10.837-4.01h27.648l-14.08 11.69-16.298-.085q-1.024 0-1.963.597-.939.512-1.195 1.621-.341 1.877.768 2.56 1.536.683 3.499.683z" style="font-family:Slant;-inkscape-font-specification:'Slant Bold Italic'"/><path d="m148.22 116.49 14.762-12.288-8.96 44.715h-12.288zm30.804-12.288h12.971l-8.96 44.715h-12.97ZM157.52 121.27h20.822l-1.536 10.923h-22.187z" style="font-family:Slant;-inkscape-font-specification:'Slant Bold Italic'"/><path d="m191.995 116.49 14.677-12.288-8.96 44.715H185.51zm26.539-12.288q7.168 0 11.093 4.267t2.219 12.885q-1.28 6.4-7.168 11.35-5.888 4.949-12.544 4.949l-8.96-.085 2.133-10.923 5.547-.085q2.645 0 4.352-1.366 1.792-1.45 2.218-3.67.512-2.56-.512-4.095-.938-1.621-3.925-1.621h-8.619l2.304-11.606zm14.848 12.288 14.677-12.288-8.96 44.715h-12.203zm26.538-12.288q6.742 0 10.07 3.584 3.413 3.499 2.048 10.496-1.195 5.974-6.06 9.984-4.778 4.01-11.348 4.01h-.94q-.511 0-1.023-.084-.512-.171-.683-.256-.085-.086-.085-.171l.427-.256.768-.341-6.23-5.632 5.547-.086q2.73 0 4.437-1.28 1.707-1.365 2.219-3.754.427-2.134-.683-3.328-1.024-1.28-4.01-1.28h-8.619l2.304-11.606zm5.547 45.056-19.03-23.722h14.593l7.338 9.386zm53.163-22.869q-2.134 10.667-10.24 16.896-8.107 6.144-17.408 6.144-9.472 0-15.104-6.059-5.547-6.058-3.328-16.981 2.133-10.837 10.24-16.896 8.106-6.144 17.408-6.144 9.557 0 15.018 6.059 5.547 6.058 3.414 16.98zm-34.475 0q-1.024 5.205 1.707 8.277 2.73 2.987 7.253 2.987 4.693 0 8.533-2.901 3.926-2.987 5.035-8.363 1.024-5.205-1.792-8.192-2.73-3.072-7.253-3.072-4.694 0-8.534 2.901-3.84 2.902-4.95 8.363z" style="fill:#b80f0a"/></g></svg>